# xmcd
#
# Track frame offsets:
#	183
#	12130
#	24243
#	39558
#	50988
#	59563
#	70830
#	85698
#	99165
#	114110
#	126030
#	140003
#	152283
#	163610
#	174518
#	189058
#	198580
#	211503
#	220750
#	231133
#	240365
#	255905
#	270608
#	281728
#	293165
#
# Disc length: 4099 seconds
#
# Revision: 7
# Processed by: cddbd v1.5.2PL0 Copyright (c) Steve Scherf et al.
# Submitted via: EasyCDDAExtractor 11.1.0.1
#
DISCID=4a100119
DTITLE=Various Artist - The Country Music Story - Volume 1
DYEAR=1989
DGENRE=Country
TTITLE0=Don Gibson - Oh Lonesome Me
TTITLE1=Susan Raye - LA International Airport
TTITLE2=Bobby Bare - For The Good Times
TTITLE3=Donna Fargo - Funny Face
TTITLE4=Waylon Jennings - Abilene
TTITLE5=Kenny Rogers - Reuben James
TTITLE6=Jeannie C Riley - Harper Valley PTA
TTITLE7=Ronnie Milsap - Kentucky Woman
TTITLE8=Lynn Anderson - Could I Have This Dance
TTITLE9=Waylon Jennings - Crying
TTITLE10=Freddy Fender - Wasted Days And Wasted Nights
TTITLE11=Lynn Anderson - Stand By Your Man
TTITLE12=Stonewall Jackson - Waterloo
TTITLE13=Donna Fargo - The Happiest Girl In The Whole USA
TTITLE14=George Hamilton IV - Four Strong Winds
TTITLE15=Lynn Anderson - Snowbird
TTITLE16=Tommy Overstreet - Gwen (Congratulations)
TTITLE17=George Jones - The Race Is On
TTITLE18=Boxcar Willie - Jambalaya
TTITLE19=The Harden Trio - Tippy Toeing
TTITLE20=Anne Murray - There Goes My Everything
TTITLE21=Don Gibson - I Can't Stop Loving You
TTITLE22=Roger Miller - King Of The Road
TTITLE23=Dolly Parton - Makin' Believe
TTITLE24=Mickey Gilley - Rocky Top
EXTD=YEAR: 1991
EXTT0=
EXTT1=
EXTT2=
EXTT3=
EXTT4=
EXTT5=
EXTT6=
EXTT7=
EXTT8=
EXTT9=
EXTT10=
EXTT11=
EXTT12=
EXTT13=
EXTT14=
EXTT15=
EXTT16=
EXTT17=
EXTT18=
EXTT19=
EXTT20=
EXTT21=
EXTT22=
EXTT23=
EXTT24=
PLAYORDER=
